HIERARCHY
ROOT Hips
{
	OFFSET -3.958830 18.904000 13.208200
	CHANNELS 6 Xposition Yposition Zposition Zrotation Yrotation Xrotation 
	JOINT LHipJoint
	{
		OFFSET 0.000000 0.000000 0.000000
		CHANNELS 3 Zrotation Yrotation Xrotation
		JOINT LeftUpLeg
		{
			OFFSET 1.800000 -1.400000 0.085000
			CHANNELS 3 Zrotation Yrotation Xrotation
			JOINT LeftLeg
			{
				OFFSET 2.215000 -6.000000 0.000000
				CHANNELS 3 Zrotation Yrotation Xrotation
				JOINT LeftFoot
				{
					OFFSET 2.500000 -6.900000 0.000000
					CHANNELS 3 Zrotation Yrotation Xrotation
					JOINT LeftToeBase
					{
						OFFSET 0.200000 -0.500000 1.950000
						CHANNELS 3 Zrotation Yrotation Xrotation
						End Site
						{
							OFFSET 0.000000 0.000000 0.000000
						}
					}
				}
			}
		}
	}
	JOINT RHipJoint
	{
		OFFSET 0.000000 0.000000 0.000000
		CHANNELS 3 Zrotation Yrotation Xrotation
		JOINT RightUpLeg
		{
			OFFSET -1.800000 -1.400000 0.085000
			CHANNELS 3 Zrotation Yrotation Xrotation
			JOINT RightLeg
			{
				OFFSET -2.215000 -6.000000 0.000000
				CHANNELS 3 Zrotation Yrotation Xrotation
				JOINT RightFoot
				{
					OFFSET -2.500000 -6.900000 0.000000
					CHANNELS 3 Zrotation Yrotation Xrotation
					JOINT RightToeBase
					{
						OFFSET -0.200000 -0.500000 1.950000
						CHANNELS 3 Zrotation Yrotation Xrotation
						End Site
						{
							OFFSET 0.000000 0.000000 0.000000
						}
					}
				}
			}
		}
	}
	JOINT LowerBack
	{
		OFFSET 0.000000 0.000000 0.000000
		CHANNELS 3 Zrotation Yrotation Xrotation
		JOINT Spine
		{
			OFFSET -0.087000 1.940000 -0.288900
			CHANNELS 3 Zrotation Yrotation Xrotation
			JOINT Spine1
			{
				OFFSET 0.000000 1.950000 0.060000
				CHANNELS 3 Zrotation Yrotation Xrotation
				JOINT Neck
				{
					OFFSET 0.000000 0.000000 0.000000
					CHANNELS 3 Zrotation Yrotation Xrotation
					JOINT Neck1
					{
						OFFSET 0.000000 1.600000 0.340000
						CHANNELS 3 Zrotation Yrotation Xrotation
						JOINT Head
						{
							OFFSET 0.000000 1.667000 -0.240000
							CHANNELS 3 Zrotation Yrotation Xrotation
							End Site
							{
								OFFSET 0.000000 0.000000 0.000000
							}
						}
					}
				}
				JOINT LeftShoulder
				{
					OFFSET 0.000000 0.000000 0.000000
					CHANNELS 3 Zrotation Yrotation Xrotation
					JOINT LeftArm
					{
						OFFSET 2.700000 1.550000 -0.730000
						CHANNELS 3 Zrotation Yrotation Xrotation
						JOINT LeftForeArm
						{
							OFFSET 5.450000 0.000000 0.000000
							CHANNELS 3 Zrotation Yrotation Xrotation
							JOINT LeftHand
							{
								OFFSET 3.450000 0.000000 0.000000
								CHANNELS 3 Zrotation Yrotation Xrotation
								JOINT LeftHandIndex1
								{
									OFFSET 0.750000 0.000000 0.000000
									CHANNELS 3 Zrotation Yrotation Xrotation
									End Site
									{
										OFFSET 0.000000 0.000000 0.000000
									}
								}
							}
						}
					}
				}
				JOINT RightShoulder
				{
					OFFSET 0.000000 0.000000 0.000000
					CHANNELS 3 Zrotation Yrotation Xrotation
					JOINT RightArm
					{
						OFFSET -2.700000 1.550000 -0.730000
						CHANNELS 3 Zrotation Yrotation Xrotation
						JOINT RightForeArm
						{
							OFFSET -5.450000 0.000000 0.000000
							CHANNELS 3 Zrotation Yrotation Xrotation
							JOINT RightHand
							{
								OFFSET -3.450000 0.000000 0.000000
								CHANNELS 3 Zrotation Yrotation Xrotation
								JOINT RightHandIndex1
								{
									OFFSET -0.750000 0.000000 0.000000
									CHANNELS 3 Zrotation Yrotation Xrotation
									End Site
									{
										OFFSET 0.000000 0.000000 0.000000
									}
								}
							}
						}
					}
				}
			}
		}
	}
}
MOTION
Frames: 7
Frame Time: 0.016667
-1.783300 16.263760 -0.720740 -9.994998 -29.153765 0.514865 -15.415261 11.266104 4.428054 4.861895 -7.747730 -40.575550 -7.046313 11.772751 42.392130 0.259382 7.952145 1.799690 0.132700 -0.080740 -0.058790 18.356729 -8.936908 4.118443 -3.255260 11.579603 -28.340458 17.403655 -26.729270 70.258275 -2.540082 -13.486670 0.227869 -0.052050 0.488160 0.096040 -3.557715 -1.717982 -9.000055 4.020395 3.339566 20.117211 -1.732537 4.962252 0.703808 -0.821054 -5.643212 -7.212398 -15.764427 8.899051 47.283247 4.284700 2.303490 2.346040 -11.630702 7.872410 0.477880 -53.081963 -7.672660 -4.922582 -25.041175 -68.337527 12.352797 -3.577515 3.400650 0.414300 0.165310 -0.137250 0.261980 12.765432 -1.486144 1.605928 55.938052 3.857174 -7.870299 9.274600 24.536338 0.429681 2.300573 -1.224473 -0.261810 0.287980 0.072980 -0.018850 
-1.801150 16.232530 -0.718750 -10.224074 -28.808878 -0.277813 -15.460203 11.250409 4.466826 5.459515 -7.921693 -40.724941 -6.970340 12.222087 44.005016 0.284692 8.321441 1.666760 0.127190 -0.104340 -0.012170 18.318995 -8.776014 4.201050 -4.266419 11.706515 -29.230682 18.367812 -28.504761 71.615013 -2.676933 -13.920383 0.114851 -0.058900 0.453260 0.079690 -3.439706 -1.937568 -9.133476 3.409317 3.056438 21.726565 -1.470238 4.722812 0.310551 -0.528807 -5.499689 -7.540253 -15.771958 8.761795 48.495816 3.368530 2.689810 1.257480 -12.716042 6.580734 0.440868 -51.534283 -7.241106 -5.548642 -24.584418 -67.766805 11.863741 -3.584332 3.301094 0.469160 0.139310 -0.111730 0.229880 13.435206 -0.232055 2.096631 54.905900 3.515534 -8.244344 8.848029 25.427648 0.462980 2.281735 -1.174453 -0.290080 0.313750 0.082970 -0.057660 
-1.844090 16.162010 -0.705720 -10.154514 -27.943167 -1.720435 -15.559875 11.156670 4.557381 6.071759 -8.495426 -41.215901 -6.925074 13.176001 47.284221 0.450472 8.996100 1.428572 0.172360 -0.051590 0.048070 18.248488 -8.449845 4.350598 -6.734620 11.785415 -31.524759 19.664475 -31.739143 74.476185 -2.949420 -14.766002 -0.091945 -0.054910 0.380820 0.095450 -3.206412 -2.301902 -9.351255 1.552292 2.868982 24.096144 -0.813678 4.272055 -0.349985 -0.184499 -4.995099 -7.931012 -15.070990 8.600696 50.320169 2.695470 3.382320 -0.062380 -14.278507 4.784539 0.455152 -48.965255 -6.467342 -6.566169 -23.332245 -67.419751 10.981813 -3.553473 3.257416 0.505520 0.097460 -0.042340 0.225300 14.642636 1.326321 2.708905 53.450145 2.611633 -8.979411 7.737862 27.111913 0.412653 2.269226 -1.165709 -0.254010 0.292430 0.046930 -0.071060 
-1.884570 16.085870 -0.694030 -10.024321 -27.403019 -3.358136 -15.668779 11.032400 4.647411 7.719804 -8.789906 -41.408150 -8.590335 15.188202 50.090997 0.618718 9.901276 1.112100 0.212440 -0.004750 0.109030 18.180644 -8.067036 4.505893 -9.865373 11.788220 -34.218449 20.874857 -34.652459 76.738507 -3.161993 -15.443080 -0.266144 -0.032290 0.316060 0.087130 -2.985202 -2.691072 -9.550157 -0.635898 2.816042 26.642975 -0.150920 3.762818 -0.872017 -0.030248 -4.568137 -7.978604 -14.527918 8.820834 52.126456 2.663780 3.965090 -2.311400 -16.172361 3.432402 0.199210 -45.926795 -5.775028 -7.360866 -21.592927 -66.395070 9.786693 -3.528665 3.180042 0.561890 0.048700 0.012540 0.201720 16.483227 2.409871 3.031617 51.221897 1.864062 -9.681037 6.884205 29.805420 0.494402 2.232556 -1.139710 -0.251000 0.303720 0.033130 -0.099680 
-1.929630 16.019340 -0.677730 -9.852151 -26.926766 -4.945101 -15.738502 10.926882 4.728251 9.688453 -8.830270 -40.952214 -11.372891 17.564516 51.554946 0.868011 10.650290 0.845646 0.305030 0.127200 0.152080 18.141781 -7.802234 4.599043 -12.818586 11.430999 -36.456554 21.352125 -35.859639 77.493812 -3.260210 -15.674166 -0.339302 0.001850 0.231180 0.119040 -2.854712 -2.928292 -9.687707 -2.549172 2.782890 28.731285 0.096834 3.152647 -1.278054 -0.051123 -4.172495 -8.094368 -14.175352 9.259136 54.436246 3.689340 4.046170 -3.584190 -18.280690 1.683289 0.073963 -42.480669 -5.374969 -7.986142 -18.386147 -64.096695 7.688061 -3.466524 3.198908 0.560410 -0.004290 0.090880 0.219190 18.847192 3.772172 3.418972 49.037902 0.954495 -10.396164 5.308028 32.373716 0.313245 2.219083 -1.188437 -0.160260 0.246680 -0.026950 -0.077020 
-1.958650 15.980520 -0.654300 -10.502174 -26.316991 -5.786562 -15.740852 10.803633 4.858129 11.852308 -8.854200 -40.763924 -13.584642 19.422579 52.586894 1.045937 11.266679 0.643129 0.338280 0.179480 0.165300 18.156493 -7.702388 4.615582 -14.497353 10.851236 -37.729185 22.501438 -35.671761 75.244481 -3.184434 -15.361036 -0.291476 0.015150 0.197780 0.134310 -2.898484 -2.905269 -9.793686 -2.633556 2.239683 30.485815 -0.863606 2.559268 -1.992116 0.108895 -3.719827 -7.971524 -13.583040 9.570378 56.826514 4.358960 4.128810 -3.390820 -21.513772 -0.117963 -0.415127 -37.693626 -5.314495 -7.974558 -15.670038 -60.075299 6.091861 -3.458948 3.174808 0.553790 -0.023070 0.124140 0.223480 21.799855 4.834856 3.714786 47.021848 -0.096759 -10.981735 2.749096 33.687334 -0.221418 2.201892 -1.208530 -0.119580 0.221040 -0.046820 -0.064930 
-1.981310 15.950080 -0.635400 -11.200674 -25.773521 -6.061182 -15.712310 10.695985 4.954627 13.560714 -8.883644 -40.688579 -14.678044 20.504593 53.369776 1.118613 11.677911 0.508916 0.353350 0.181230 0.182900 18.203864 -7.677363 4.624301 -15.680833 10.288219 -39.407239 22.925290 -34.209520 72.331044 -3.006408 -14.796599 -0.196995 0.021590 0.189020 0.145550 -3.034400 -2.773037 -9.846039 -2.170113 1.294556 31.529081 -2.550595 1.660256 -2.621160 0.233268 -3.563931 -7.613856 -13.578535 10.294519 58.215974 4.709420 4.357300 -2.940690 -23.488847 -0.808389 -1.085506 -33.543673 -6.046924 -7.181871 -13.594507 -54.427682 4.959880 -3.480180 3.142218 0.561790 -0.026650 0.125240 0.214430 23.465070 4.666419 3.523867 46.925716 -0.327861 -11.402517 0.673542 34.781336 -0.732514 2.182122 -1.216856 -0.116050 0.208490 -0.042860 -0.074660 
